<svg xmlns="http://www.w3.org/2000/svg" viewBox="-977 1702 352 304">
  <defs>
    <style>
      .cls-1 {
        fill: #0f7a86;
      }
    </style>
  </defs>
  <g id="Group_186" data-name="Group 186" transform="translate(-992 1537)">
    <g id="Group_147" data-name="Group 147" transform="translate(379 651) rotate(180)">
      <circle id="Ellipse_147" data-name="Ellipse 147" class="cls-1" cx="5.5" cy="5.5" r="5.5" transform="translate(51 287)"/>
      <circle id="Ellipse_148" data-name="Ellipse 148" class="cls-1" cx="5.5" cy="5.5" r="5.5" transform="translate(80 409)"/>
      <circle id="Ellipse_149" data-name="Ellipse 149" class="cls-1" cx="11" cy="11" r="11" transform="translate(12 182)"/>
      <circle id="Ellipse_150" data-name="Ellipse 150" class="cls-1" cx="3.5" cy="3.5" r="3.5" transform="translate(33 239)"/>
      <circle id="Ellipse_151" data-name="Ellipse 151" class="cls-1" cx="3.5" cy="3.5" r="3.5" transform="translate(305 328)"/>
      <circle id="Ellipse_152" data-name="Ellipse 152" class="cls-1" cx="3.5" cy="3.5" r="3.5" transform="translate(114 369)"/>
      <circle id="Ellipse_153" data-name="Ellipse 153" class="cls-1" cx="5" cy="5" r="5" transform="translate(80 267)"/>
      <circle id="Ellipse_154" data-name="Ellipse 154" class="cls-1" cx="5" cy="5" r="5" transform="translate(128 394)"/>
      <circle id="Ellipse_155" data-name="Ellipse 155" class="cls-1" cx="5" cy="5" r="5" transform="translate(133 234)"/>
      <circle id="Ellipse_156" data-name="Ellipse 156" class="cls-1" cx="11" cy="11" r="11" transform="translate(332 282)"/>
      <circle id="Ellipse_157" data-name="Ellipse 157" class="cls-1" cx="5.5" cy="5.5" r="5.5" transform="translate(341 475)"/>
      <circle id="Ellipse_158" data-name="Ellipse 158" class="cls-1" cx="5.5" cy="5.5" r="5.5" transform="translate(238 404)"/>
      <circle id="Ellipse_159" data-name="Ellipse 159" class="cls-1" cx="5.5" cy="5.5" r="5.5" transform="translate(259 365)"/>
      <circle id="Ellipse_160" data-name="Ellipse 160" class="cls-1" cx="10" cy="10" r="10" transform="translate(344 236)"/>
      <circle id="Ellipse_161" data-name="Ellipse 161" class="cls-1" cx="5.5" cy="5.5" r="5.5" transform="translate(297 288)"/>
    </g>
  </g>
</svg>
