<svg xmlns="http://www.w3.org/2000/svg" viewBox="-1885 1332 375 666">
  <defs>
    <style>
      .cls-1 {
        fill: #0f7a86;
      }

      .cls-2 {
        fill: #fff;
      }
    </style>
  </defs>
  <g id="Group_181" data-name="Group 181" transform="translate(-1885)">
    <rect id="Rectangle_40" data-name="Rectangle 40" class="cls-1" width="375" height="666" transform="translate(0 1332)"/>
    <circle id="Ellipse_102" data-name="Ellipse 102" class="cls-2" cx="5.5" cy="5.5" r="5.5" transform="translate(50 1543)"/>
    <circle id="Ellipse_107" data-name="Ellipse 107" class="cls-2" cx="5.5" cy="5.5" r="5.5" transform="translate(79 1665)"/>
    <circle id="Ellipse_103" data-name="Ellipse 103" class="cls-2" cx="11" cy="11" r="11" transform="translate(11 1438)"/>
    <circle id="Ellipse_104" data-name="Ellipse 104" class="cls-2" cx="3.5" cy="3.5" r="3.5" transform="translate(32 1495)"/>
    <circle id="Ellipse_111" data-name="Ellipse 111" class="cls-2" cx="3.5" cy="3.5" r="3.5" transform="translate(304 1584)"/>
    <circle id="Ellipse_110" data-name="Ellipse 110" class="cls-2" cx="3.5" cy="3.5" r="3.5" transform="translate(113 1625)"/>
    <circle id="Ellipse_106" data-name="Ellipse 106" class="cls-2" cx="5" cy="5" r="5" transform="translate(79 1523)"/>
    <circle id="Ellipse_114" data-name="Ellipse 114" class="cls-2" cx="5" cy="5" r="5" transform="translate(127 1650)"/>
    <circle id="Ellipse_109" data-name="Ellipse 109" class="cls-2" cx="5" cy="5" r="5" transform="translate(132 1490)"/>
    <circle id="Ellipse_99" data-name="Ellipse 99" class="cls-2" cx="11" cy="11" r="11" transform="translate(331 1538)"/>
    <circle id="Ellipse_101" data-name="Ellipse 101" class="cls-2" cx="5.5" cy="5.5" r="5.5" transform="translate(340 1731)"/>
    <circle id="Ellipse_112" data-name="Ellipse 112" class="cls-2" cx="5.5" cy="5.5" r="5.5" transform="translate(237 1660)"/>
    <circle id="Ellipse_108" data-name="Ellipse 108" class="cls-2" cx="5.5" cy="5.5" r="5.5" transform="translate(258 1621)"/>
    <circle id="Ellipse_105" data-name="Ellipse 105" class="cls-2" cx="10" cy="10" r="10" transform="translate(343 1492)"/>
    <circle id="Ellipse_100" data-name="Ellipse 100" class="cls-2" cx="5.5" cy="5.5" r="5.5" transform="translate(296 1544)"/>
  </g>
</svg>
